<?xml version="1.0" encoding="utf-8"?>
<!-- Svg Vector Icons : http://www.onlinewebfonts.com/icon -->
<!DOCTYPE svg PUBLIC "-//W3C//DTD SVG 1.1//EN" "http://www.w3.org/Graphics/SVG/1.1/DTD/svg11.dtd">
<svg version="1.1" xmlns="http://www.w3.org/2000/svg" xmlns:xlink="http://www.w3.org/1999/xlink" x="0px" y="0px" viewBox="0 0 1000 1000" enable-background="new 0 0 1000 1000" xml:space="preserve">
<metadata> Svg Vector Icons : http://www.onlinewebfonts.com/icon </metadata>
<g><path d="M928.8,745L928.8,745V622.5c0-104.1-79.6-183.8-183.8-183.8H622.5c-36.8,0-61.3-30.6-61.3-61.3v-61.2h122.5c36.8,0,61.3-24.5,61.3-61.3V132.5c0-36.8-24.5-61.3-61.3-61.3H316.2c-30.6,0-61.2,24.5-61.2,61.3V255c0,36.8,24.5,61.3,61.2,61.3h122.5v61.2c0,36.8-24.5,61.3-61.3,61.3H255c-104.1,0-183.8,79.6-183.8,183.8V745C34.5,745,10,769.5,10,806.3v61.2c0,36.7,24.5,61.2,61.3,61.2h122.5c36.8,0,61.2-24.5,61.2-61.2v-61.2c0-36.8-24.5-61.3-61.2-61.3l0,0V622.5c0-36.8,24.5-61.3,61.2-61.3h122.5c24.5,0,42.9-6.1,61.3-12.2v196c-30.6,0-61.3,30.6-61.3,61.3v61.2c0,36.7,24.5,61.2,61.3,61.2h122.5c36.8,0,61.3-24.5,61.3-61.2v-61.2c0-36.8-24.5-61.3-61.3-61.3l0,0V549c18.4,6.1,36.8,12.2,61.3,12.2H745c36.8,0,61.3,24.5,61.3,61.3V745c-30.6,0-61.3,30.6-61.3,61.3v61.2c0,36.7,24.5,61.2,61.3,61.2h122.5c36.8,0,61.3-24.5,61.3-61.2v-61.2C990,769.5,965.5,745,928.8,745L928.8,745z"/></g>
</svg>