<?xml version="1.0" encoding="utf-8"?>
<!-- Generator: Adobe Illustrator 19.0.0, SVG Export Plug-In . SVG Version: 6.00 Build 0)  -->
<svg version="1.1" id="Capa_1" xmlns="http://www.w3.org/2000/svg" xmlns:xlink="http://www.w3.org/1999/xlink" x="0px" y="0px"
	 viewBox="-55 147.6 499.4 499.4" style="enable-background:new -55 147.6 499.4 499.4;" xml:space="preserve">
<style type="text/css">
	.st0{fill:#FFFFFF;}
</style>
<g>
	<g>
		<path class="st0" d="M53.8,551c-2.5-2.4-5.1-4.8-7.6-7.2c37.9-37.2,76.5-82.8,76.5-144.8S84.1,291.4,46.2,254.2
			c2.5-2.4,5.1-4.8,7.6-7.2c32.7-30.9,60.9-57.5,60.9-88v-8h-16v8c0,5.3-1.4,10.6-3.7,16H-25.6c-2.4-5.4-3.7-10.7-3.7-16v-8h-16v8
			c0,30.5,28.2,57.1,60.9,88c2.5,2.4,5.1,4.8,7.6,7.2C-14.7,291.4-53.3,337-53.3,399s38.6,107.6,76.5,144.8
			c-2.5,2.4-5.1,4.8-7.6,7.2c-32.7,30.9-60.9,57.5-60.9,88v8h16v-8c0-5.3,1.4-10.6,3.7-16H95c2.3,5.4,3.7,10.7,3.7,16v8h16v-8
			C114.7,608.5,86.5,581.9,53.8,551z M-16,191H85.4c-3.9,5.2-8.5,10.6-13.7,16H-2.4C-7.5,201.6-12.1,196.2-16,191z M13.6,223h42.2
			c-4.2,4-8.5,8.2-13,12.4c-2.7,2.5-5.4,5.1-8.1,7.7c-2.7-2.6-5.5-5.2-8.1-7.7C22.1,231.2,17.8,227,13.6,223z M34.7,265.3
			c9.7,9.5,19.2,19.3,28.1,29.7H6.6C15.4,284.6,25,274.8,34.7,265.3z M-24.9,343h75.6v-16h-67.2c3.4-5.8,7.2-11.4,11.2-16.9v0.9h80
			v-0.9c4,5.5,7.7,11.1,11.2,16.9H66.7v16h27.6c2.3,5.2,4.3,10.5,6.1,16H-31C-29.2,353.5-27.3,348.2-24.9,343z M-35.1,375h139.6
			c1,5.2,1.5,10.5,1.8,16H-37C-36.6,385.5-36.1,380.2-35.1,375z M-31,439h25.7v-16h-29.8c-1-5.2-1.5-10.5-1.8-16h143.3
			c-0.3,5.5-0.9,10.8-1.8,16H10.7v16h89.7c-1.7,5.5-3.7,10.8-6.1,16H-24.9C-27.3,449.8-29.2,444.5-31,439z M-5.3,487.9
			c-4-5.5-7.7-11.1-11.2-16.9H85.8c-3.4,5.8-7.2,11.4-11.2,16.9V487h-80C-5.3,487-5.3,487.9-5.3,487.9z M6.6,503h56.2
			c-8.8,10.4-18.4,20.2-28.1,29.7C25,523.2,15.4,513.4,6.6,503z M26.6,562.6c2.7-2.5,5.4-5.1,8.1-7.7c2.7,2.6,5.5,5.2,8.1,7.7
			c4.4,4.2,8.8,8.3,13,12.4H13.6C17.8,571,22.1,566.8,26.6,562.6z M-16,607c3.9-5.2,8.5-10.6,13.7-16h74.1c5.1,5.4,9.8,10.8,13.7,16
			H-16z"/>
	</g>
</g>
<g>
	<g>
		<path class="st0" d="M402.7,583h-12.9c18.9-34.2,28.9-72.7,28.9-112c0-64.6-27-126.2-74.3-170l21.7-21.7l-16-16l28.7-28.7l8,8
			l35.2-35.5l-59.3-59.5l-35.2,35.7l7.9,7.9l-28.7,28.6l-15.9-15.9l-112,112l-16-16l-35.3,35.3l107.3,107.3l35.3-35.3l-16-16
			l44.9-44.9c23.1,20.8,40.1,47.8,48.8,77.4c-14.3,3.2-25.1,15.9-25.1,31.2c0,17.4,14,31.5,31.2,31.9c-0.6,6.7-1.7,13.3-3.1,19.9
			c-6.3-2.4-13-3.8-20.1-3.8h-120c-22.1,0-40,17.9-40,40v8h104.6c-0.4,2.6-0.6,5.3-0.6,8v24h-112c-22.1,0-40,17.9-40,40v24h320v-24
			C442.7,600.9,424.7,583,402.7,583z M362.7,170.4l36.7,36.8l-12.6,12.8l-36.7-36.7L362.7,170.4z M346.8,202.6l20.7,20.7l-28.7,28.7
			L318,231.2L346.8,202.6z M234.8,419.9l-84.7-84.7l12.7-12.7l84.7,84.7L234.8,419.9z M242.8,379.9l-52.7-52.7l100.7-100.7
			l52.7,52.7L242.8,379.9z M310.3,335l22.8-22.8c44.3,40.9,69.6,98.4,69.6,158.7c0,28.4-5.6,56.4-16.3,82.4
			c-1.6-15.5-9.5-29.1-21.1-38.3c2.6-10.6,4.3-21.4,5-32.3c9.8-5.5,16.4-15.8,16.4-27.8c0-14.1-9.3-26-22-30.2
			C355.7,390.4,336.7,359,310.3,335z M338.7,455c0-8.8,7.2-16,16-16s16,7.2,16,16s-7.2,16-16,16S338.7,463.8,338.7,455z M188,535
			c3.3-9.3,12.2-16,22.6-16h80.9c-4.7,4.6-8.5,10-11.4,16H188z M426.7,631h-288v-8c0-13.2,10.8-24,24-24h144v-16h-16v-24
			c0-22.1,17.9-40,40-40s40,17.9,40,40v24h-48v16h80c13.2,0,24,10.8,24,24V631z"/>
	</g>
</g>
</svg>
