<?xml version="1.0" encoding="utf-8"?>
<!-- Generator: Adobe Illustrator 19.0.0, SVG Export Plug-In . SVG Version: 6.00 Build 0)  -->
<svg version="1.1" id="Capa_1" xmlns="http://www.w3.org/2000/svg" xmlns:xlink="http://www.w3.org/1999/xlink" x="0px" y="0px"
	 viewBox="-49 141 512 512" style="enable-background:new -49 141 512 512;" xml:space="preserve">
<style type="text/css">
	.st0{fill:#FFFFFF;}
</style>
<g>
	<g>
		<path class="st0" d="M372,352v-46c0-91-74-165-165-165S42,215,42,306v46H12v301h390V352H372z M72,306c0-74.4,60.6-135,135-135
			s135,60.6,135,135v46h-30v-46c0-57.9-47.1-105-105-105s-105,47.1-105,105v46H72V306z M282,306v46H132v-46c0-41.4,33.6-75,75-75
			S282,264.6,282,306z M372,623H42v-30h330V623z M372,563H42V382c9.7,0,302,0,330,0V563z"/>
	</g>
</g>
<g>
	<g>
		<path class="st0" d="M207,412c-24.8,0-45,20.2-45,45c0,19.6,12.5,36.2,30,42.4V533h30v-33.6c17.5-6.2,30-22.9,30-42.4
			C252,432.2,231.8,412,207,412z M207,472c-8.3,0-15-6.7-15-15s6.7-15,15-15s15,6.7,15,15S215.3,472,207,472z"/>
	</g>
</g>
</svg>
