<?xml version="1.0" encoding="utf-8"?>
<!-- Generator: Adobe Illustrator 19.0.0, SVG Export Plug-In . SVG Version: 6.00 Build 0)  -->
<svg version="1.1" id="Capa_1" xmlns="http://www.w3.org/2000/svg" xmlns:xlink="http://www.w3.org/1999/xlink" x="0px" y="0px"
	 viewBox="-278 369 55 55" style="enable-background:new -278 369 55 55;" xml:space="preserve">
<style type="text/css">
	.st0{fill:#FFFFFF;}
</style>
<path class="st0" d="M-229,369c-3.3,0-6,2.7-6,6c0,1,0.3,2,0.7,2.9l-9.8,9.8c-1.4-1.1-3.1-1.7-4.9-1.7s-3.5,0.6-4.9,1.7l-7.7-7.7
	c0.4-0.6,0.6-1.3,0.6-2c0-2.2-1.8-4-4-4s-4,1.8-4,4s1.8,4,4,4c0.7,0,1.4-0.2,2-0.6l7.7,7.7c-1.1,1.4-1.7,3.1-1.7,4.9
	s0.6,3.5,1.7,4.9l-12.7,12.7c-1.1-1-2.5-1.6-4-1.6c-3.3,0-6,2.7-6,6s2.7,6,6,6s6-2.7,6-6c0-1-0.3-2-0.7-2.9l12.8-12.8
	c1.1,0.9,2.4,1.4,3.9,1.6v10.2c-2.8,0.5-5,2.9-5,5.9c0,3.3,2.7,6,6,6c3.3,0,6-2.7,6-6c0-3-2.2-5.4-5-5.9v-10.2
	c1.5-0.2,2.8-0.8,3.9-1.6l7.7,7.7c-0.4,0.6-0.6,1.3-0.6,2c0,2.2,1.8,4,4,4s4-1.8,4-4s-1.8-4-4-4c-0.7,0-1.4,0.2-2,0.6l-7.7-7.7
	c1.1-1.4,1.7-3.1,1.7-4.9s-0.6-3.5-1.7-4.9l9.7-9.7c1.1,1,2.5,1.6,4,1.6c3.3,0,6-2.7,6-6S-225.7,369-229,369z M-267,378
	c0-1.1,0.9-2,2-2s2,0.9,2,2s-0.9,2-2,2S-267,379.1-267,378z M-272,420c-2.2,0-4-1.8-4-4s1.8-4,4-4s4,1.8,4,4S-269.8,420-272,420z
	 M-245,418c0,2.2-1.8,4-4,4s-4-1.8-4-4s1.8-4,4-4S-245,415.8-245,418z M-249,400c-3.3,0-6-2.7-6-6s2.7-6,6-6c3.3,0,6,2.7,6,6
	S-245.7,400-249,400z M-231,410c0,1.1-0.9,2-2,2s-2-0.9-2-2s0.9-2,2-2S-231,408.9-231,410z M-229,379c-2.2,0-4-1.8-4-4s1.8-4,4-4
	s4,1.8,4,4S-226.8,379-229,379z"/>
</svg>
